<svg width="512" height="512" viewBox="0 0 512 512" xmlns="http://www.w3.org/2000/svg">
  <rect width="512" height="512" rx="102" fill="#ffffff"/>
  <circle cx="256" cy="256" r="200" fill="#3b82f6"/>
  
  <g transform="translate(256, 240)">
    <rect x="-75" y="-15" width="90" height="80" fill="#ffffff" rx="5"/>
    <rect x="30" y="-40" width="75" height="105" fill="#ffffff" rx="5"/>
    <rect x="45" y="-80" width="20" height="42" fill="#ffffff"/>
    
    <circle cx="55" cy="-95" r="8" fill="#ffffff" opacity="0.8"/>
    <circle cx="52" cy="-108" r="10" fill="#ffffff" opacity="0.6"/>
    <circle cx="58" cy="-120" r="8" fill="#ffffff" opacity="0.4"/>
    
    <rect x="-60" y="0" width="20" height="20" fill="#3b82f6" rx="2"/>
    <rect x="-30" y="0" width="20" height="20" fill="#3b82f6" rx="2"/>
    <rect x="0" y="0" width="20" height="20" fill="#3b82f6" rx="2"/>
    
    <rect x="-60" y="30" width="20" height="20" fill="#3b82f6" rx="2"/>
    <rect x="-30" y="30" width="20" height="20" fill="#3b82f6" rx="2"/>
    <rect x="0" y="30" width="20" height="20" fill="#3b82f6" rx="2"/>
    
    <rect x="45" y="-20" width="20" height="20" fill="#3b82f6" rx="2"/>
    <rect x="75" y="-20" width="20" height="20" fill="#3b82f6" rx="2"/>
    <rect x="45" y="10" width="20" height="20" fill="#3b82f6" rx="2"/>
    <rect x="75" y="10" width="20" height="20" fill="#3b82f6" rx="2"/>
    <rect x="45" y="40" width="20" height="20" fill="#3b82f6" rx="2"/>
    <rect x="75" y="40" width="20" height="20" fill="#3b82f6" rx="2"/>
  </g>
  
  <text x="256" y="390" font-family="Arial, sans-serif" font-size="72" font-weight="bold" fill="#ffffff" text-anchor="middle">
    PT
  </text>
</svg>